<?xml version="1.0" standalone="no"?>
<!DOCTYPE svg PUBLIC "-//W3C//DTD SVG 20010904//EN"
 "http://www.w3.org/TR/2001/REC-SVG-20010904/DTD/svg10.dtd">
<svg version="1.0" xmlns="http://www.w3.org/2000/svg"
 width="409.000000pt" height="409.000000pt" viewBox="0 0 409.000000 409.000000"
 preserveAspectRatio="xMidYMid meet">
<metadata>
Created by potrace 1.14, written by Peter Selinger 2001-2017
</metadata>
<g transform="translate(0.000000,409.000000) scale(0.100000,-0.100000)"
fill="#000000" stroke="none">
<path d="M2497 3804 c-1 -1 -27 -4 -57 -8 -98 -10 -177 -36 -228 -74 -31 -23
-34 -24 -80 -11 -65 19 -182 14 -258 -11 -58 -20 -184 -88 -212 -116 -7 -8
-28 -13 -47 -12 -22 1 -63 -13 -112 -37 -102 -50 -192 -138 -218 -213 -19 -52
-21 -53 -50 -47 -138 29 -281 24 -398 -16 -75 -25 -117 -47 -187 -99 -103 -76
-155 -107 -220 -133 -102 -40 -226 -52 -336 -33 -32 6 -45 4 -58 -9 -9 -9 -14
-20 -11 -25 3 -4 7 -28 10 -51 3 -24 10 -66 15 -94 5 -27 12 -61 14 -75 20
-105 77 -266 133 -372 50 -96 67 -98 123 -15 36 54 84 118 132 174 l27 32 47
-67 c47 -67 114 -196 114 -219 0 -14 35 -27 50 -18 5 3 30 47 56 98 25 51 51
98 56 105 6 6 7 12 4 12 -4 0 1 12 11 28 31 47 43 66 52 87 5 11 34 60 64 109
46 74 56 85 62 67 5 -15 -6 -40 -38 -89 -78 -120 -91 -161 -91 -292 -1 -123
18 -199 70 -282 20 -31 22 -42 14 -64 -43 -113 -60 -329 -31 -404 53 -140 122
-214 225 -242 33 -9 46 -17 46 -30 0 -10 4 -26 8 -36 52 -108 74 -143 117
-187 50 -51 134 -98 196 -110 26 -5 40 -17 59 -47 67 -110 220 -226 320 -244
62 -11 169 -12 204 -3 22 7 42 1 95 -26 37 -18 92 -41 123 -50 56 -16 166 -21
223 -10 36 8 119 52 140 75 13 14 24 16 50 10 54 -12 161 -9 227 6 115 27 281
124 300 175 4 10 23 18 55 22 26 3 62 11 78 18 17 7 32 13 35 14 40 10 153 87
199 134 19 20 48 72 56 101 1 3 5 17 9 32 6 20 26 37 71 63 81 45 143 115 175
196 22 56 25 78 24 184 -1 66 -7 140 -14 165 -12 44 -11 45 19 72 29 26 46 54
60 103 3 11 6 61 6 110 -1 79 -5 99 -34 167 -18 42 -45 94 -60 115 -27 37 -27
40 -14 78 26 75 30 130 17 220 -14 93 -121 258 -192 294 -21 11 -23 17 -18 73
8 111 -39 212 -135 288 -62 48 -156 85 -229 89 -9 1 -21 16 -28 35 -21 56 -68
113 -132 156 -107 72 -141 84 -265 85 -97 2 -116 5 -160 27 -54 28 -135 46
-223 51 -29 2 -54 2 -55 1z"/>
</g>
</svg>
